<?xml version="1.0" encoding="utf-8"?>
<!-- Generator: Adobe Illustrator 26.0.0, SVG Export Plug-In . SVG Version: 6.00 Build 0)  -->
<svg version="1.1" xmlns="http://www.w3.org/2000/svg" xmlns:xlink="http://www.w3.org/1999/xlink" x="0px" y="0px"
	 viewBox="0 0 2500 2500" style="enable-background:new 0 0 2500 2500;" xml:space="preserve">
<style type="text/css">
	.st0{display:none;}
	.st1{display:inline;fill:#FFFFFF;}
	.st2{fill:#FFFFFF;}
	.st3{fill:#D9FFFF;}
	.st4{fill:#296ACC;}
	.st5{fill:#2E77E6;}
	.st6{fill:#5896FA;}
	.st7{fill:#EA5D00;}
	.st8{fill:#005CEA;}
	.st9{fill:#006B73;}
	.st10{fill:#EA7B00;}
	.st11{fill:#D1F5FF;}
	.st12{fill:#FFD145;}
	.st13{fill:#1251B3;}
	.st14{fill:#3383FF;}
	.st15{fill:#AAE0FF;}
	.st16{fill:#E3EEFF;}
	.st17{fill:#3397FF;}
	.st18{opacity:0.5;}
	.st19{fill:#F7A58E;}
	.st20{fill:#B3644F;}
	.st21{fill:#F7CEC3;}
	.st22{fill:#262626;}
	.st23{fill:#F0F0F0;}
</style>
<g id="BG" class="st0">
	<rect class="st1" width="2500" height="2500"/>
</g>
<g id="elements">
	<g id="dot">
		<path class="st2" d="M1232.7,2054.4c-6.6-0.1-13.3-0.2-19.9-0.5l0.5-13.1c6.5,0.2,13.1,0.4,19.6,0.4L1232.7,2054.4z
			 M1252.6,2054.3l-0.2-13.1c6.5-0.1,13.1-0.3,19.5-0.5l0.5,13.1C1265.9,2054.1,1259.2,2054.2,1252.6,2054.3z M1193,2053
			c-6.6-0.4-13.3-0.9-19.8-1.4l1.1-13.1c6.5,0.5,13,1,19.5,1.4L1193,2053z M1292.3,2052.8l-0.8-13.1c6.5-0.4,13-0.9,19.5-1.5
			l1.1,13.1C1305.6,2051.9,1298.9,2052.4,1292.3,2052.8z M1153.4,2049.6c-6.5-0.7-13.2-1.5-19.7-2.4l1.7-13c6.4,0.9,13,1.7,19.4,2.4
			L1153.4,2049.6z M1331.9,2049.4l-1.5-13.1c6.5-0.7,13-1.5,19.4-2.4l1.8,13C1345.1,2047.8,1338.5,2048.6,1331.9,2049.4z
			 M1114,2044.4c-6.5-1-13.1-2.2-19.6-3.4l2.4-12.9c6.4,1.2,12.9,2.3,19.3,3.3L1114,2044.4z M1371.3,2044l-2.1-13
			c6.4-1,12.9-2.2,19.3-3.4l2.4,12.9C1384.4,2041.8,1377.8,2042.9,1371.3,2044z M1074.9,2037.2c-6.5-1.4-13-2.8-19.4-4.3l3-12.8
			c6.3,1.5,12.7,2.9,19.1,4.3L1074.9,2037.2z M1410.4,2036.6l-2.7-12.9c6.3-1.4,12.7-2.8,19.1-4.3l3.1,12.8
			C1423.4,2033.8,1416.8,2035.2,1410.4,2036.6z M1036.2,2028c-6.4-1.7-12.9-3.5-19.2-5.3l3.7-12.6c6.2,1.8,12.6,3.6,18.9,5.2
			L1036.2,2028z M1449.1,2027.3l-3.4-12.7c6.3-1.7,12.6-3.4,18.8-5.3l3.7,12.6C1461.9,2023.8,1455.5,2025.6,1449.1,2027.3z
			 M998,2016.9c-6.3-2-12.7-4.1-18.9-6.3l4.3-12.4c6.1,2.1,12.4,4.2,18.6,6.2L998,2016.9z M1487.2,2016.1l-4-12.5
			c6.2-2,12.4-4.1,18.5-6.2l4.3,12.4C1499.9,2012,1493.5,2014.1,1487.2,2016.1z M960.2,2003.9c-6.2-2.3-12.4-4.7-18.6-7.2l4.9-12.2
			c6.1,2.4,12.2,4.8,18.3,7.1L960.2,2003.9z M1524.8,2003.1l-4.6-12.3c6.1-2.3,12.2-4.7,18.2-7.1l4.9,12.2
			C1537.2,1998.3,1531,2000.7,1524.8,2003.1z M923.2,1989.1c-6.1-2.6-12.2-5.4-18.2-8.1l5.5-11.9c5.9,2.7,11.9,5.4,17.9,8
			L923.2,1989.1z M1561.6,1988.2l-5.2-12.1c5.9-2.6,11.9-5.3,17.8-8l5.5,11.9C1573.7,1982.8,1567.6,1985.5,1561.6,1988.2z
			 M887,1972.4c-5.9-2.9-11.9-6-17.8-9l6.1-11.7c5.8,3,11.6,6,17.5,8.9L887,1972.4z M1597.5,1971.5l-5.8-11.8
			c5.8-2.9,11.7-5.9,17.4-8.9l6.1,11.6C1609.4,1965.5,1603.4,1968.5,1597.5,1971.5z M851.7,1953.9c-5.8-3.2-11.6-6.5-17.3-9.9
			l6.7-11.3c5.6,3.3,11.3,6.6,17,9.7L851.7,1953.9z M1632.6,1953l-6.4-11.5c5.7-3.2,11.4-6.4,16.9-9.7l6.7,11.3
			C1644.2,1946.5,1638.4,1949.8,1632.6,1953z M817.4,1933.7c-5.6-3.5-11.3-7.1-16.8-10.7l7.2-11c5.4,3.6,11,7.1,16.5,10.5
			L817.4,1933.7z M1666.8,1932.8l-7-11.2c5.5-3.4,11-7,16.4-10.5l7.2,11C1678,1925.8,1672.4,1929.4,1666.8,1932.8z M784.1,1911.9
			c-5.4-3.7-10.9-7.6-16.2-11.5l7.7-10.6c5.3,3.8,10.6,7.7,16,11.3L784.1,1911.9z M1700,1911l-7.5-10.8c5.3-3.7,10.7-7.5,15.9-11.3
			l7.8,10.6C1710.8,1903.4,1705.4,1907.2,1700,1911z M751.9,1888.5c-5.2-4-10.5-8.2-15.6-12.3l8.3-10.2c5.1,4.1,10.2,8.2,15.4,12.1
			L751.9,1888.5z M1732,1887.5l-8-10.4c5.2-4,10.3-8,15.3-12.1l8.3,10.2C1742.5,1879.4,1737.2,1883.5,1732,1887.5z M721,1863.5
			c-5-4.3-10.1-8.7-15-13.1l8.8-9.8c4.8,4.3,9.8,8.6,14.8,12.8L721,1863.5z M1762.9,1862.5l-8.5-10c4.9-4.2,9.9-8.5,14.7-12.9
			l8.8,9.8C1772.9,1853.9,1767.9,1858.3,1762.9,1862.5z M691.3,1837c-4.8-4.5-9.6-9.1-14.3-13.8l9.2-9.4c4.6,4.6,9.4,9.1,14.1,13.6
			L691.3,1837z M1792.5,1836l-9-9.6c4.7-4.5,9.5-9,14.1-13.6l9.2,9.4C1802.1,1826.8,1797.3,1831.5,1792.5,1836z M663,1809.1
			c-4.6-4.7-9.2-9.6-13.6-14.5l9.7-8.9c4.4,4.8,8.9,9.6,13.4,14.2L663,1809.1z M1820.8,1808.1l-9.5-9.1c4.5-4.7,9-9.5,13.4-14.3
			l9.7,8.9C1829.9,1798.4,1825.3,1803.3,1820.8,1808.1z M636,1779.9c-4.3-5-8.7-10-12.9-15.1l10.1-8.4c4.1,5,8.4,10,12.7,14.9
			L636,1779.9z M1847.7,1778.8l-9.9-8.6c4.3-4.9,8.5-9.9,12.7-14.9l10.1,8.4C1856.3,1768.7,1852,1773.8,1847.7,1778.8z
			 M610.6,1749.3c-4.1-5.2-8.2-10.5-12.1-15.7l10.5-7.9c3.9,5.2,7.9,10.4,12,15.5L610.6,1749.3z M1873.1,1748.2l-10.3-8.2
			c4-5.1,8.1-10.3,11.9-15.5l10.5,7.9C1881.3,1737.7,1877.2,1743,1873.1,1748.2z M586.7,1717.6c-3.8-5.4-7.7-10.8-11.4-16.3
			l10.9-7.4c3.6,5.4,7.4,10.7,11.2,16L586.7,1717.6z M1897,1716.3l-10.7-7.6c3.8-5.3,7.5-10.7,11.2-16.1l10.9,7.4
			C1904.6,1705.5,1900.8,1711,1897,1716.3z M564.4,1684.8c-3.6-5.6-7.1-11.2-10.5-16.8l11.2-6.8c3.4,5.5,6.8,11.1,10.4,16.5
			L564.4,1684.8z M1919.3,1683.4l-11.1-7.1c3.5-5.5,7-11,10.4-16.6l11.2,6.8C1926.4,1672.1,1922.8,1677.8,1919.3,1683.4z
			 M543.7,1650.9c-3.3-5.7-6.5-11.5-9.7-17.3l11.6-6.3c3.1,5.7,6.3,11.4,9.5,17L543.7,1650.9z M1939.9,1649.3l-11.4-6.5
			c3.2-5.7,6.4-11.4,9.5-17.1l11.6,6.3C1946.5,1637.7,1943.2,1643.6,1939.9,1649.3z M524.8,1616c-3-5.9-6-11.8-8.8-17.8l11.8-5.7
			c2.8,5.8,5.7,11.7,8.7,17.5L524.8,1616z M1958.9,1614.3l-11.7-6c2.9-5.8,5.9-11.7,8.7-17.6l11.9,5.7
			C1964.8,1602.4,1961.9,1608.4,1958.9,1614.3z M507.6,1580.3c-2.7-6-5.4-12.1-7.9-18.2l12.1-5.1c2.5,6,5.1,12,7.8,17.9
			L507.6,1580.3z M1976.1,1578.3l-12-5.4c2.7-6,5.3-12,7.8-18l12.1,5.1C1981.4,1566.1,1978.8,1572.3,1976.1,1578.3z M492.2,1543.8
			c-2.4-6.2-4.8-12.4-7-18.6l12.4-4.5c2.2,6.1,4.5,12.2,6.9,18.3L492.2,1543.8z M1991.4,1541.5l-12.3-4.8c2.4-6.1,4.7-12.3,6.9-18.4
			l12.4,4.5C1996.2,1529.1,1993.8,1535.3,1991.4,1541.5z M478.6,1506.4c-2.1-6.3-4.2-12.6-6.1-18.9l12.6-3.9
			c1.9,6.2,3.9,12.5,6,18.6L478.6,1506.4z M2005,1504l-12.5-4.2c2.1-6.2,4.1-12.5,6-18.7l12.6,3.8
			C2009.1,1491.3,2007.1,1497.7,2005,1504z M466.8,1468.4c-1.8-6.3-3.5-12.8-5.2-19.2l12.7-3.2c1.6,6.3,3.3,12.7,5.1,18.9
			L466.8,1468.4z M2016.6,1465.9l-12.7-3.5c1.7-6.2,3.4-12.6,5-18.9l12.8,3.2C2020.1,1453.1,2018.4,1459.5,2016.6,1465.9z
			 M457,1429.9c-1.5-6.4-2.9-13-4.2-19.4l12.9-2.6c1.3,6.4,2.7,12.8,4.1,19.1L457,1429.9z M2026.3,1427.3l-12.8-2.9
			c1.4-6.3,2.8-12.8,4.1-19.1l12.9,2.6C2029.1,1414.3,2027.8,1420.9,2026.3,1427.3z M449.1,1390.9c-1.1-6.5-2.2-13.1-3.2-19.6l13-2
			c1,6.4,2,12.9,3.2,19.3L449.1,1390.9z M2034.1,1388.3l-13-2.2c1.1-6.4,2.2-12.9,3.1-19.3l13,1.9
			C2036.3,1375.2,2035.2,1381.8,2034.1,1388.3z M443.2,1351.6c-0.8-6.5-1.6-13.2-2.2-19.8l13.1-1.3c0.7,6.5,1.4,13,2.2,19.4
			L443.2,1351.6z M2039.9,1349l-13.1-1.6c0.8-6.4,1.5-13,2.1-19.4l13.1,1.3C2041.4,1335.8,2040.7,1342.4,2039.9,1349z M439.2,1312.1
			c-0.5-6.6-0.9-13.2-1.3-19.8l13.1-0.7c0.3,6.5,0.8,13.1,1.3,19.5L439.2,1312.1z M2043.8,1309.4l-13.1-1c0.5-6.5,0.9-13.1,1.2-19.5
			l13.1,0.6C2044.7,1296.1,2044.3,1302.8,2043.8,1309.4z M437.1,1272.4c-0.2-6.6-0.3-13.3-0.3-19.9l13.2,0c0,6.5,0.1,13.1,0.3,19.6
			L437.1,1272.4z M2045.7,1269.7l-13.1-0.3c0.2-6.5,0.2-13.1,0.2-19.6c0-1.7,0-3.5,0-5.2l13.2-0.1c0,1.8,0,3.5,0,5.3
			C2045.9,1256.4,2045.9,1263.1,2045.7,1269.7z M450.1,1232.9l-13.1-0.3c0.1-6.6,0.4-13.3,0.7-19.9l13.1,0.6
			C450.5,1219.8,450.2,1226.4,450.1,1232.9z M2032.4,1225.1c-0.2-6.5-0.5-13.1-0.8-19.5l13.1-0.7c0.4,6.6,0.6,13.3,0.9,19.9
			L2032.4,1225.1z M451.9,1193.8l-13.1-0.9c0.5-6.6,1-13.3,1.6-19.8l13.1,1.2C452.9,1180.8,452.3,1187.3,451.9,1193.8z M2030.3,1186
			c-0.5-6.5-1.1-13-1.8-19.5l13.1-1.4c0.7,6.6,1.3,13.2,1.8,19.8L2030.3,1186z M455.6,1154.9l-13.1-1.6c0.8-6.6,1.7-13.2,2.6-19.7
			l13,1.9C457.2,1141.9,456.3,1148.4,455.6,1154.9z M2026.2,1147.1c-0.8-6.4-1.8-12.9-2.8-19.4l13-2c1,6.5,2,13.2,2.8,19.7
			L2026.2,1147.1z M461.2,1116.1l-13-2.2c1.1-6.5,2.3-13.1,3.6-19.6l12.9,2.5C463.4,1103.3,462.3,1109.8,461.2,1116.1z
			 M2020.2,1108.5c-1.2-6.4-2.4-12.8-3.7-19.2l12.9-2.7c1.3,6.5,2.6,13,3.8,19.5L2020.2,1108.5z M468.7,1077.8l-12.8-2.8
			c1.4-6.4,3-12.9,4.5-19.4l12.8,3.2C471.6,1065,470.1,1071.4,468.7,1077.8z M2012.3,1070.1c-1.5-6.3-3-12.7-4.7-19l12.7-3.3
			c1.7,6.4,3.2,12.9,4.7,19.3L2012.3,1070.1z M478.1,1039.8l-12.7-3.5c1.7-6.4,3.6-12.8,5.5-19.1l12.6,3.8
			C481.6,1027.2,479.8,1033.5,478.1,1039.8z M2002.5,1032.3c-1.8-6.3-3.7-12.6-5.6-18.7l12.6-3.9c2,6.3,3.9,12.7,5.7,19.1
			L2002.5,1032.3z M489.4,1002.3l-12.5-4.1c2.1-6.3,4.2-12.6,6.5-18.9l12.4,4.4C493.6,989.9,491.4,996.1,489.4,1002.3z
			 M1990.9,994.9c-2.1-6.1-4.3-12.4-6.5-18.4l12.3-4.5c2.3,6.2,4.5,12.5,6.6,18.7L1990.9,994.9z M502.6,965.3l-12.3-4.7
			c2.4-6.2,4.9-12.4,7.4-18.5l12.1,5C507.4,953.1,504.9,959.3,502.6,965.3z M1977.4,958.2c-2.4-6-4.9-12.1-7.4-18l12.1-5.1
			c2.6,6.1,5.1,12.2,7.5,18.3L1977.4,958.2z M517.6,929.1l-12-5.3c2.7-6.1,5.5-12.1,8.3-18.1l11.9,5.6
			C523,917.1,520.3,923.1,517.6,929.1z M1962.1,922.4c-2.7-5.9-5.5-11.8-8.3-17.6l11.8-5.7c2.9,5.9,5.7,11.9,8.4,17.9L1962.1,922.4z
			 M534.4,893.7l-11.7-5.9c3-5.9,6.1-11.9,9.2-17.7l11.6,6.2C540.4,882,537.3,887.9,534.4,893.7z M1945.1,887.3
			c-3-5.8-6.1-11.5-9.2-17.2l11.5-6.3c3.2,5.8,6.3,11.7,9.3,17.5L1945.1,887.3z M552.9,859.1l-11.4-6.5c3.3-5.7,6.7-11.5,10.1-17.2
			l11.3,6.8C559.5,847.8,556.1,853.5,552.9,859.1z M1926.3,853.1c-3.3-5.6-6.6-11.3-10-16.8l11.2-6.9c3.4,5.6,6.9,11.3,10.2,17
			L1926.3,853.1z M573.1,825.6l-11.1-7.1c3.5-5.6,7.2-11.2,10.9-16.7l10.9,7.3C580.2,814.6,576.6,820.1,573.1,825.6z M1905.9,819.8
			c-3.5-5.4-7.2-10.9-10.8-16.3l10.9-7.4c3.7,5.4,7.4,11,11,16.5L1905.9,819.8z M595,793.1l-10.7-7.6c3.8-5.4,7.7-10.8,11.7-16.1
			l10.5,7.9C602.6,782.4,598.7,787.8,595,793.1z M1883.8,787.6c-3.8-5.3-7.7-10.6-11.6-15.7l10.5-7.9c4,5.2,7.9,10.6,11.8,16
			L1883.8,787.6z M618.4,761.7l-10.3-8.1c4.1-5.2,8.3-10.4,12.5-15.5l10.1,8.4C626.5,751.4,622.4,756.6,618.4,761.7z M1860.2,756.4
			c-4-5.1-8.2-10.2-12.4-15.1l10.1-8.5c4.2,5,8.5,10.2,12.6,15.4L1860.2,756.4z M643.3,731.5l-9.9-8.6c4.3-5,8.8-10,13.2-14.9
			l9.7,8.9C651.9,721.7,647.5,726.6,643.3,731.5z M1835.1,726.5c-4.3-4.9-8.7-9.7-13.1-14.5l9.6-8.9c4.5,4.8,9,9.8,13.3,14.7
			L1835.1,726.5z M669.6,702.6l-9.5-9.1c4.6-4.8,9.3-9.5,13.9-14.2l9.3,9.3C678.7,693.2,674.1,697.9,669.6,702.6z M1808.5,697.8
			c-4.5-4.6-9.2-9.3-13.8-13.8l9.2-9.4c4.7,4.6,9.4,9.4,14,14.1L1808.5,697.8z M697.4,675l-9-9.5c4.8-4.5,9.7-9.1,14.6-13.5l8.8,9.8
			C706.9,666.1,702.1,670.5,697.4,675z M1780.6,670.5c-4.7-4.4-9.6-8.8-14.5-13.2l8.7-9.8c4.9,4.4,9.9,8.9,14.7,13.4L1780.6,670.5z
			 M726.4,648.8l-8.6-10c5-4.3,10.1-8.6,15.2-12.7l8.3,10.2C736.4,640.4,731.3,644.6,726.4,648.8z M1751.3,644.5
			c-5-4.2-10-8.4-15.1-12.4l8.2-10.3c5.1,4.1,10.3,8.4,15.4,12.6L1751.3,644.5z M756.7,624.1l-8.1-10.4c5.2-4,10.5-8.1,15.8-12
			l7.8,10.6C767,616.2,761.8,620.1,756.7,624.1z M1720.7,620c-5.2-3.9-10.5-7.9-15.7-11.7l7.7-10.7c5.3,3.9,10.7,7.9,16,11.9
			L1720.7,620z M788.1,600.9l-7.5-10.8c5.4-3.8,10.9-7.5,16.4-11.2l7.3,11C798.9,593.5,793.4,597.2,788.1,600.9z M1689,597.1
			c-5.4-3.7-10.8-7.3-16.3-10.9l7.2-11c5.5,3.6,11.1,7.3,16.5,11.1L1689,597.1z M820.7,579.3l-7-11.1c5.6-3.5,11.3-7,16.9-10.4
			l6.7,11.3C831.8,572.5,826.1,575.9,820.7,579.3z M1656.2,575.7c-5.5-3.4-11.2-6.8-16.8-10.1l6.6-11.4c5.7,3.3,11.5,6.8,17.1,10.2
			L1656.2,575.7z M854.2,559.4l-6.4-11.5c5.7-3.2,11.6-6.4,17.4-9.5l6.2,11.6C865.6,553.1,859.9,556.2,854.2,559.4z M1622.4,556
			c-5.7-3.1-11.5-6.2-17.3-9.2l6.1-11.7c5.9,3,11.8,6.2,17.6,9.4L1622.4,556z M888.7,541.1l-5.9-11.8c5.9-2.9,11.9-5.8,17.9-8.6
			l5.6,11.9C900.4,535.4,894.5,538.2,888.7,541.1z M1587.6,537.9c-5.9-2.9-11.8-5.7-17.7-8.4l5.5-12c6,2.7,12.1,5.6,18,8.5
			L1587.6,537.9z M924,524.6l-5.3-12c6-2.6,12.2-5.2,18.2-7.7l5,12.2C936,519.4,929.9,522,924,524.6z M1551.9,521.6
			c-6-2.6-12.1-5.1-18.1-7.5l4.9-12.2c6.1,2.4,12.3,5,18.4,7.6L1551.9,521.6z M960.2,509.8l-4.7-12.3c6.2-2.3,12.5-4.6,18.7-6.8
			l4.4,12.4C972.4,505.2,966.2,507.5,960.2,509.8z M1515.5,507.1c-6.1-2.3-12.3-4.5-18.5-6.6l4.2-12.4c6.3,2.1,12.6,4.4,18.8,6.7
			L1515.5,507.1z M997,496.8l-4.1-12.5c6.3-2,12.7-4,19-5.9l3.7,12.6C1009.5,492.9,1003.2,494.8,997,496.8z M1478.3,494.5
			c-6.2-1.9-12.5-3.8-18.7-5.6l3.6-12.6c6.3,1.8,12.7,3.7,19,5.7L1478.3,494.5z M1034.5,485.7l-3.4-12.7c6.4-1.7,12.8-3.4,19.3-4.9
			l3.1,12.8C1047.2,482.4,1040.8,484,1034.5,485.7z M1440.7,483.7c-6.3-1.6-12.7-3.2-19-4.7l3-12.8c6.4,1.5,12.9,3.1,19.3,4.8
			L1440.7,483.7z M1072.5,476.4l-2.8-12.9c6.4-1.4,13-2.7,19.5-4l2.5,12.9C1085.3,473.7,1078.9,475.1,1072.5,476.4z M1402.6,474.8
			c-6.3-1.3-12.8-2.6-19.2-3.7l2.3-12.9c6.5,1.2,13.1,2.5,19.5,3.8L1402.6,474.8z M1111,469.1l-2.2-13c6.5-1.1,13.1-2.1,19.7-3
			l1.8,13C1123.9,467,1117.4,468,1111,469.1z M1364.1,467.8c-6.4-1-12.9-1.9-19.4-2.8l1.7-13c6.6,0.9,13.2,1.8,19.7,2.8
			L1364.1,467.8z M1149.7,463.6l-1.5-13.1c6.5-0.8,13.2-1.4,19.8-2l1.2,13.1C1162.7,462.2,1156.1,462.9,1149.7,463.6z M1325.3,462.8
			c-6.4-0.7-13-1.3-19.5-1.8l1.1-13.1c6.6,0.5,13.2,1.2,19.8,1.8L1325.3,462.8z M1188.6,460.1l-0.9-13.1c6.6-0.4,13.3-0.8,19.9-1.1
			l0.5,13.1C1201.7,459.3,1195.1,459.7,1188.6,460.1z M1286.4,459.6c-6.5-0.4-13.1-0.7-19.5-0.9l0.4-13.1c6.6,0.2,13.3,0.5,19.9,0.9
			L1286.4,459.6z M1227.7,458.5l-0.2-13.1c6.6-0.1,13.3-0.1,19.9-0.1l-0.1,13.1C1240.8,458.4,1234.2,458.4,1227.7,458.5z"/>
		<path class="st2" d="M1236.2,1099.5l-15.9-11.6l3.1-4.3l15.9,11.6L1236.2,1099.5z M1204.3,1076.3l-15.9-11.6l3.1-4.3l15.9,11.6
			L1204.3,1076.3z M1172.4,1053l-15.9-11.6l3.1-4.3l15.9,11.6L1172.4,1053z M1140.6,1029.8l-15.9-11.6l3.1-4.3l15.9,11.6
			L1140.6,1029.8z M1108.7,1006.5l-15.9-11.6l3.1-4.3l15.9,11.6L1108.7,1006.5z M1076.8,983.3l-15.9-11.6l3.1-4.3L1080,979
			L1076.8,983.3z M1045,960l-15.9-11.6l3.1-4.3l15.9,11.6L1045,960z M1013.1,936.8l-15.9-11.6l3.1-4.3l15.9,11.6L1013.1,936.8z
			 M981.2,913.5l-15.9-11.6l3.1-4.3l15.9,11.6L981.2,913.5z M949.4,890.3l-15.9-11.6l3.1-4.3l15.9,11.6L949.4,890.3z M917.5,867
			l-15.9-11.6l3.1-4.3l15.9,11.6L917.5,867z M885.6,843.8l-15.9-11.6l3.1-4.3l15.9,11.6L885.6,843.8z M853.7,820.5l-15.9-11.6
			l3.1-4.3l15.9,11.6L853.7,820.5z M821.9,797.3l-15.9-11.6l3.1-4.3L825,793L821.9,797.3z M790,774l-15.9-11.6l3.1-4.3l15.9,11.6
			L790,774z M758.1,750.7l-15.9-11.6l3.1-4.3l15.9,11.6L758.1,750.7z"/>
		<path class="st2" d="M510.2,1459.7l-2.2-4.8l18-8.1l2.2,4.8L510.2,1459.7z M546.1,1443.5l-2.2-4.8l18-8.1l2.2,4.8L546.1,1443.5z
			 M582.1,1427.2l-2.2-4.8l18-8.1l2.2,4.8L582.1,1427.2z M618,1410.9l-2.2-4.8l18-8.1l2.2,4.8L618,1410.9z M654,1394.7l-2.2-4.8
			l18-8.1l2.2,4.8L654,1394.7z M689.9,1378.4l-2.2-4.8l18-8.1l2.2,4.8L689.9,1378.4z M725.8,1362.1l-2.2-4.8l18-8.1l2.2,4.8
			L725.8,1362.1z M761.8,1345.9l-2.2-4.8l18-8.1l2.2,4.8L761.8,1345.9z M797.7,1329.6l-2.2-4.8l18-8.1l2.2,4.8L797.7,1329.6z
			 M833.7,1313.4l-2.2-4.8l18-8.1l2.2,4.8L833.7,1313.4z M869.6,1297.1l-2.2-4.8l18-8.1l2.2,4.8L869.6,1297.1z M905.6,1280.8
			l-2.2-4.8l18-8.1l2.2,4.8L905.6,1280.8z M941.5,1264.6l-2.2-4.8l18-8.1l2.2,4.8L941.5,1264.6z M977.4,1248.3l-2.2-4.8l18-8.1
			l2.2,4.8L977.4,1248.3z M1013.4,1232l-2.2-4.8l18-8.1l2.2,4.8L1013.4,1232z M1049.3,1215.8l-2.2-4.8l18-8.1l2.2,4.8L1049.3,1215.8
			z M1085.3,1199.5l-2.2-4.8l18-8.1l2.2,4.8L1085.3,1199.5z M1121.2,1183.3l-2.2-4.8l18-8.1l2.2,4.8L1121.2,1183.3z M1157.2,1167
			l-2.2-4.8l18-8.1l2.2,4.8L1157.2,1167z M1193.1,1150.7l-2.2-4.8l18-8.1l2.2,4.8L1193.1,1150.7z"/>
		<path class="st2" d="M525.5,1337.4l-3.7-3.9l6.4-6.1l3.7,3.9L525.5,1337.4z M546.2,1317.8l-3.7-3.9l14.3-13.6l3.7,3.9
			L546.2,1317.8z M574.8,1290.6l-3.7-3.9l14.3-13.6l3.7,3.9L574.8,1290.6z M603.5,1263.5l-3.7-3.9l14.3-13.6l3.7,3.9L603.5,1263.5z
			 M632.1,1236.4l-3.7-3.9l14.3-13.6l3.7,3.9L632.1,1236.4z M660.7,1209.2l-3.7-3.9l14.3-13.6l3.7,3.9L660.7,1209.2z M689.4,1182.1
			l-3.7-3.9l14.3-13.6l3.7,3.9L689.4,1182.1z M718,1155l-3.7-3.9l14.3-13.6l3.7,3.9L718,1155z M746.6,1127.8l-3.7-3.9l14.3-13.6
			l3.7,3.9L746.6,1127.8z M775.3,1100.7l-3.7-3.9l14.3-13.6l3.7,3.9L775.3,1100.7z M803.9,1073.5l-3.7-3.9l14.3-13.6l3.7,3.9
			L803.9,1073.5z M832.6,1046.4l-3.7-3.9l14.3-13.6l3.7,3.9L832.6,1046.4z M861.2,1019.3l-3.7-3.9l14.3-13.6l3.7,3.9L861.2,1019.3z
			 M889.8,992.1l-3.7-3.9l14.3-13.6l3.7,3.9L889.8,992.1z M918.5,965l-3.7-3.9l14.3-13.6l3.7,3.9L918.5,965z M947.1,937.9l-3.7-3.9
			l14.3-13.6l3.7,3.9L947.1,937.9z M975.7,910.7l-3.7-3.9l14.3-13.6l3.7,3.9L975.7,910.7z M1004.4,883.6l-3.7-3.9l14.3-13.6l3.7,3.9
			L1004.4,883.6z M1033,856.5l-3.7-3.9l14.3-13.6l3.7,3.9L1033,856.5z M1061.6,829.3l-3.7-3.9l14.3-13.6l3.7,3.9L1061.6,829.3z
			 M1090.3,802.2l-3.7-3.9l14.3-13.6l3.7,3.9L1090.3,802.2z M1118.9,775.1l-3.7-3.9l14.3-13.6l3.7,3.9L1118.9,775.1z M1147.6,747.9
			l-3.7-3.9l14.3-13.6l3.7,3.9L1147.6,747.9z M1176.2,720.8l-3.7-3.9l14.3-13.6l3.7,3.9L1176.2,720.8z M1204.8,693.6l-3.7-3.9
			l14.3-13.6l3.7,3.9L1204.8,693.6z M1233.5,666.5l-3.7-3.9l14.3-13.6l3.7,3.9L1233.5,666.5z M1262.1,639.4l-3.7-3.9l14.3-13.6
			l3.7,3.9L1262.1,639.4z M1290.7,612.2l-3.7-3.9l14.3-13.6l3.7,3.9L1290.7,612.2z M1319.4,585.1l-3.7-3.9l14.3-13.6l3.7,3.9
			L1319.4,585.1z M1348,558l-3.7-3.9l14.3-13.6l3.7,3.9L1348,558z M1376.6,530.8l-3.7-3.9l14.3-13.6l3.7,3.9L1376.6,530.8z"/>
		<path class="st2" d="M1862.5,1474.6l-5.3-13.2l4.9-2l5.3,13.2L1862.5,1474.6z M1850,1443l-7.3-18.3l4.9-2l7.3,18.3L1850,1443z
			 M1835.4,1406.4l-7.3-18.3l4.9-2l7.3,18.3L1835.4,1406.4z M1820.8,1369.7l-7.3-18.3l4.9-2l7.3,18.3L1820.8,1369.7z M1806.1,1333.1
			l-7.3-18.3l4.9-2l7.3,18.3L1806.1,1333.1z M1791.5,1296.4l-7.3-18.3l4.9-2l7.3,18.3L1791.5,1296.4z M1776.9,1259.8l-7.3-18.3
			l4.9-2l7.3,18.3L1776.9,1259.8z M1762.3,1223.1l-7.3-18.3l4.9-2l7.3,18.3L1762.3,1223.1z M1747.7,1186.5l-7.3-18.3l4.9-2l7.3,18.3
			L1747.7,1186.5z M1733.1,1149.8l-7.3-18.3l4.9-2l7.3,18.3L1733.1,1149.8z M1718.5,1113.2l-7.3-18.3l4.9-2l7.3,18.3L1718.5,1113.2z
			 M1703.9,1076.6l-7.3-18.3l4.9-2l7.3,18.3L1703.9,1076.6z M1689.3,1039.9l-7.3-18.3l4.9-2l7.3,18.3L1689.3,1039.9z M1674.7,1003.3
			l-7.3-18.3l4.9-2l7.3,18.3L1674.7,1003.3z M1660.1,966.6l-7.3-18.3l4.9-2l7.3,18.3L1660.1,966.6z M1645.5,930l-7.3-18.3l4.9-2
			l7.3,18.3L1645.5,930z M1630.9,893.3l-7.3-18.3l4.9-2l7.3,18.3L1630.9,893.3z M1616.3,856.7l-7.3-18.3l4.9-2l7.3,18.3
			L1616.3,856.7z M1601.7,820l-7.3-18.3l4.9-2l7.3,18.3L1601.7,820z M1587.1,783.4l-7.3-18.3l4.9-2l7.3,18.3L1587.1,783.4z
			 M1572.5,746.7l-7.3-18.3l4.9-2l7.3,18.3L1572.5,746.7z M1557.9,710.1l-7.3-18.3l4.9-2l7.3,18.3L1557.9,710.1z M1543.3,673.4
			l-7.3-18.3l4.9-2l7.3,18.3L1543.3,673.4z M1528.7,636.8l-7.3-18.3l4.9-2l7.3,18.3L1528.7,636.8z"/>
		<path class="st2" d="M1858.4,1472.6l-16.8-10.3l2.8-4.5l16.8,10.3L1858.4,1472.6z M1824.8,1452l-16.8-10.3l2.8-4.5l16.8,10.3
			L1824.8,1452z M1791.2,1431.3l-16.8-10.3l2.8-4.5l16.8,10.3L1791.2,1431.3z M1757.6,1410.6l-16.8-10.3l2.8-4.5l16.8,10.3
			L1757.6,1410.6z M1724,1389.9l-16.8-10.3l2.8-4.5l16.8,10.3L1724,1389.9z M1690.4,1369.3l-16.8-10.3l2.8-4.5l16.8,10.3
			L1690.4,1369.3z M1656.8,1348.6l-16.8-10.3l2.8-4.5l16.8,10.3L1656.8,1348.6z M1623.2,1327.9l-16.8-10.3l2.8-4.5l16.8,10.3
			L1623.2,1327.9z M1589.6,1307.2l-16.8-10.3l2.8-4.5l16.8,10.3L1589.6,1307.2z M1556,1286.6l-16.8-10.3l2.8-4.5l16.8,10.3
			L1556,1286.6z M1522.4,1265.9l-16.8-10.3l2.8-4.5l16.8,10.3L1522.4,1265.9z M1488.8,1245.2l-16.8-10.3l2.8-4.5l16.8,10.3
			L1488.8,1245.2z M1455.2,1224.5l-16.8-10.3l2.8-4.5l16.8,10.3L1455.2,1224.5z M1421.6,1203.9l-16.8-10.3l2.8-4.5l16.8,10.3
			L1421.6,1203.9z M1388,1183.2l-16.8-10.3l2.8-4.5l16.8,10.3L1388,1183.2z M1354.4,1162.5l-16.8-10.3l2.8-4.5l16.8,10.3
			L1354.4,1162.5z M1320.8,1141.8l-16.8-10.3l2.8-4.5l16.8,10.3L1320.8,1141.8z M1287.2,1121.1l-16.8-10.3l2.8-4.5l16.8,10.3
			L1287.2,1121.1z"/>
		<path class="st2" d="M1272.9,1111l-2.2-4.8l18-8.2l2.2,4.8L1272.9,1111z M1308.8,1094.6l-2.2-4.8l18-8.2l2.2,4.8L1308.8,1094.6z
			 M1344.7,1078.3l-2.2-4.8l18-8.2l2.2,4.8L1344.7,1078.3z M1380.6,1062l-2.2-4.8l18-8.2l2.2,4.8L1380.6,1062z M1416.6,1045.7
			l-2.2-4.8l18-8.2l2.2,4.8L1416.6,1045.7z M1452.5,1029.3l-2.2-4.8l18-8.2l2.2,4.8L1452.5,1029.3z M1488.4,1013l-2.2-4.8l18-8.2
			l2.2,4.8L1488.4,1013z M1524.3,996.7l-2.2-4.8l18-8.2l2.2,4.8L1524.3,996.7z M1560.2,980.4l-2.2-4.8l18-8.2l2.2,4.8L1560.2,980.4z
			 M1596.1,964l-2.2-4.8l18-8.2l2.2,4.8L1596.1,964z M1632,947.7l-2.2-4.8l18-8.2l2.2,4.8L1632,947.7z M1668,931.4l-2.2-4.8l18-8.2
			l2.2,4.8L1668,931.4z M1703.9,915.1l-2.2-4.8l18-8.2l2.2,4.8L1703.9,915.1z M1739.8,898.7l-2.2-4.8l18-8.2l2.2,4.8L1739.8,898.7z
			 M1775.7,882.4l-2.2-4.8l18-8.2l2.2,4.8L1775.7,882.4z"/>
	</g>
	<g id="shield">
		<g>
			<g>
				<g>
					<path class="st3" d="M219.7,1321.3L219.7,1321.3c0-0.7,0-0.9,0-1C219.7,1320.4,219.7,1321.3,219.7,1321.3z"/>
					<path class="st3" d="M219.7,1321.3L219.7,1321.3c0-0.7,0-0.9,0-1C219.7,1320.4,219.7,1321.3,219.7,1321.3z"/>
					<path class="st3" d="M612.4,1323.1c0,0,0-0.9,0-1C612.4,1322.1,612.4,1322.4,612.4,1323.1L612.4,1323.1z"/>
					<path class="st3" d="M612.4,1323.1c0,0,0-0.9,0-1C612.4,1322.1,612.4,1322.4,612.4,1323.1L612.4,1323.1z"/>
					<path class="st2" d="M416.9,1215.2c-45.8,49-118.8,89.2-196.9,106.3c0,5.2-0.2,34.1-0.7,167.4
						c-0.8,177.8,168.4,264.7,194.7,278c25.5-11.7,196.8-98.5,197.6-276.3c0.6-133.3,0.7-162.2,0.7-167.4
						C534.2,1305.5,462.2,1264.7,416.9,1215.2z"/>
				</g>
			</g>
			<g>
				<g>
					<path class="st4" d="M416.4,1247.4c-44.8,41.1-106.9,73.4-175.2,91l-0.7,150.6c-0.3,68.9,27.1,131.3,81.4,185.3
						c35.7,35.5,73.2,57.5,92.3,67.5c0.8-0.4,1.7-0.9,2.6-1.3v-492.8C416.7,1247.6,416.5,1247.5,416.4,1247.4z"/>
				</g>
				<g>
					<path class="st5" d="M416.8,1247.7v492.8c19.8-10.3,55.8-31.6,90.2-65.3c54.8-53.6,82.7-115.7,83-184.6l0.7-150.6
						C522.8,1321.8,461.2,1289.1,416.8,1247.7z"/>
				</g>
			</g>
		</g>
		<g>
			<path class="st2" d="M354.4,1478.3v87.5c0,9.7,119,9.7,119,0v-87.5H354.4z M419.9,1524.8v24.8c0,3.3-2.7,6-6,6c-3.4,0-6-2.7-6-6
				v-24.9c-5.1-2.3-8.7-7.4-8.7-13.4c0-8.1,6.6-14.7,14.7-14.7s14.7,6.6,14.7,14.7C428.5,1517.3,425,1522.5,419.9,1524.8z"/>
			<path class="st2" d="M459.9,1474.6l-15-0.5l10.4-12.1c14.3-14.6,14-38.1-0.7-52.4c-14.6-14.3-38.1-14-52.4,0.7l-4.1,4.2l-8.6-8.4
				l4.1-4.2c18.9-19.4,50-19.8,69.4-0.9c19.4,18.9,19.8,50,0.9,69.4L459.9,1474.6z"/>
		</g>
	</g>
	<g id="Document">
		<g>
			<rect x="1301.6" y="291.7" class="st4" width="232.8" height="290.6"/>
		</g>
		<g>
			<g>
				<rect x="1331.8" y="321.7" class="st2" width="232.8" height="290.6"/>
				<path class="st6" d="M1568.5,616.2h-240.6V317.9h240.6V616.2z M1335.7,608.5h225V325.6h-225V608.5z"/>
			</g>
		</g>
		<g>
			<rect x="1360.9" y="212.2" class="st7" width="232.8" height="290.6"/>
			<rect x="1444.8" y="250.3" class="st2" width="120.4" height="18.9"/>
			<rect x="1409.2" y="294.7" class="st2" width="156" height="18.9"/>
			<rect x="1409.2" y="339.1" class="st2" width="156" height="18.9"/>
			<rect x="1409.2" y="383.5" class="st2" width="156" height="18.9"/>
			<rect x="1409.2" y="427.9" class="st2" width="156" height="18.9"/>
		</g>
		<g>
			<rect x="1398.1" y="381.2" class="st6" width="232.8" height="290.6"/>
			<rect x="1474.2" y="428.9" class="st8" width="120.4" height="18.9"/>
			<rect x="1438.6" y="473.3" class="st8" width="156" height="18.9"/>
			<rect x="1438.6" y="517.7" class="st8" width="156" height="18.9"/>
			<rect x="1438.6" y="562.1" class="st8" width="156" height="18.9"/>
			<rect x="1438.6" y="606.5" class="st8" width="156" height="18.9"/>
		</g>
	</g>
	<g id="gear">
		<circle class="st2" cx="666.3" cy="645.8" r="91.5"/>
		<g>
			<path class="st9" d="M810.6,732.8c11.9-19.7,19.3-40.9,22.4-62.4l6.8,1l13.5,2l0.2,0c3.6-24.5,2.4-49.4-3.5-73.1l-20,5
				c-5.4-21.5-14.8-41.9-28.3-59.9l16.6-12.3c-14.2-19.3-32.4-36.1-54.2-49.2l-10.7,17.7c-19.7-11.9-40.9-19.3-62.4-22.4l3-20.4
				c-24.5-3.6-49.4-2.3-73.1,3.5l5,20c-21.5,5.4-41.9,14.8-59.9,28.3L553.5,494c-19.3,14.2-36.1,32.4-49.2,54.2l17.7,10.7
				c-11.9,19.7-19.3,40.9-22.4,62.4l-14.5-2.1l-5.9-0.8l-0.1,0c-3.6,24.5-2.3,49.4,3.5,73.1l20-5c5.4,21.5,14.9,41.9,28.4,60
				l-16.6,12.3c14.2,19.3,32.4,36.1,54.1,49.2l10.7-17.7c19.7,11.9,41,19.3,62.4,22.5l-2.3,15.9l-0.6,4.6c24.5,3.6,49.3,2.3,73-3.6
				l-5-20c21.5-5.4,41.9-14.9,60-28.3l12.3,16.6c19.2-14.2,36-32.4,49.1-54.1L810.6,732.8z M619.1,724.2
				c-43.3-26.1-57.2-82.3-31.1-125.6c26.1-43.2,82.3-57.1,125.6-31c43.2,26.1,57.1,82.3,31.1,125.5
				C718.5,736.3,662.3,750.3,619.1,724.2z"/>
		</g>
		<g>
			<path class="st10" d="M468.2,720.7c-6.7-10.1-15.1-18.4-24.6-24.8l2-3l4-6l0-0.1c-10.9-7.3-22.9-12.3-35.6-14.8l-2.2,10.6
				c-11.4-2.3-23.3-2.4-34.9-0.1L375,672c-12.4,2.4-24.5,7.3-35.7,14.6l6,9.1c-10.1,6.7-18.4,15.1-24.8,24.6l-9-6
				c-7.3,10.9-12.3,23-14.8,35.6l10.6,2.2c-2.3,11.4-2.4,23.3-0.1,34.9l-10.7,2.1c2.4,12.4,7.3,24.5,14.6,35.7l9.1-6
				c6.7,10.1,15.1,18.4,24.6,24.8l-4.3,6.4l-1.7,2.6l0,0c10.9,7.3,23,12.3,35.6,14.8l2.2-10.6c11.4,2.3,23.3,2.4,34.9,0.1l2.1,10.7
				c12.4-2.4,24.5-7.2,35.6-14.6l-6-9.1c10.1-6.7,18.4-15.1,24.8-24.6l7,4.7l2,1.3c7.3-10.9,12.2-22.9,14.8-35.5l-10.6-2.2
				c2.3-11.4,2.4-23.3,0.1-35l10.7-2.1c-2.4-12.4-7.3-24.4-14.6-35.6L468.2,720.7z M420.8,809.8c-22.2,14.7-52.1,8.6-66.8-13.6
				c-14.7-22.2-8.6-52,13.6-66.7c22.2-14.7,52-8.6,66.7,13.6C449.1,765.3,443,795.2,420.8,809.8z"/>
		</g>
	</g>
	<g id="card">
		<path class="st9" d="M2071,915.3l-246.1,0c-5.2,0-9.4-4.2-9.4-9.4V766.3c0-5.2,4.2-9.4,9.4-9.4l246.1,0c5.2,0,9.4,4.2,9.4,9.4
			v139.6C2080.4,911.1,2076.2,915.3,2071,915.3z"/>
		<rect x="1815.5" y="786.8" class="st11" width="264.8" height="27.3"/>
		<path class="st11" d="M1876.2,884.9h-38.9c-2.5,0-4.5,2-4.5,4.5l0,0c0,2.5,2,4.5,4.5,4.5h38.9c2.5,0,4.5-2,4.5-4.5l0,0
			C1880.7,886.9,1878.7,884.9,1876.2,884.9z"/>
		<path class="st11" d="M1936.1,884.9h-38.9c-2.5,0-4.5,2-4.5,4.5l0,0c0,2.5,2,4.5,4.5,4.5h38.9c2.5,0,4.5-2,4.5-4.5l0,0
			C1940.6,886.9,1938.6,884.9,1936.1,884.9z"/>
		<path class="st11" d="M1996,884.9l-38.9,0c-2.5,0-4.5,2-4.5,4.5l0,0c0,2.5,2,4.5,4.5,4.5h38.9c2.5,0,4.5-2,4.5-4.5l0,0
			C2000.5,886.9,1998.4,884.9,1996,884.9z"/>
		<path class="st11" d="M2055.9,884.9h-38.9c-2.5,0-4.5,2-4.5,4.5l0,0c0,2.5,2,4.5,4.5,4.5h38.9c2.5,0,4.5-2,4.5-4.5l0,0
			C2060.3,886.9,2058.3,884.9,2055.9,884.9z"/>
		<path class="st11" d="M1835.5,764.9L1835.5,764.9c-2.7,0-4.9,2.2-4.9,4.9v1.7c0,2.7,2.2,4.9,4.9,4.9l0,0c2.7,0,4.9-2.2,4.9-4.9
			v-1.7C1840.4,767.1,1838.2,764.9,1835.5,764.9z"/>
		<path class="st11" d="M1846.1,770.7L1846.1,770.7c0,3.2,2.6,5.8,5.8,5.8h20.6c3.2,0,5.8-2.6,5.8-5.8l0,0c0-3.2-2.6-5.8-5.8-5.8
			l-20.6,0C1848.7,764.9,1846.1,767.5,1846.1,770.7z"/>
		<path class="st12" d="M1843.4,828.8l26.6,0c4.3,0,7.7,3.5,7.7,7.7v23c0,4.3-3.5,7.7-7.7,7.7h-26.6c-4.3,0-7.7-3.5-7.7-7.7v-23
			C1835.7,832.3,1839.2,828.8,1843.4,828.8z"/>
	</g>
	<g id="folder">
		<g>
			<path class="st13" d="M1994.4,1385.1V1367c0-8.2-6.7-14.9-14.9-14.9h-158.4c-8.2,0-14.9,6.7-14.9,14.9v319.8h409.6v-301.7H1994.4
				z"/>
			<polygon class="st2" points="2232.9,1396.1 1831.3,1396.1 1806.3,1686.9 2213.9,1686.9 			"/>
			<path class="st14" d="M2215.9,1686.9h-409.6l43.5-287.1c1.3-8.4,8.5-14.6,17-14.6h374.9c10.5,0,18.6,9.4,17,19.7L2215.9,1686.9z"
				/>
			<g>
				
					<ellipse transform="matrix(0.2298 -0.9732 0.9732 0.2298 64.0485 3166.9124)" class="st2" cx="2032.8" cy="1543" rx="69.3" ry="69.3"/>
				<g>
					<g>
						<path class="st8" d="M2032.9,1540.2c6.8,0,13-3.3,17-8.3c2.9-3.6,4.7-8.3,4.7-13.5c0-12-9.7-21.8-21.7-21.8
							c-12.1,0-21.8,9.9-21.8,21.8c0,5.2,1.7,9.9,4.7,13.5C2019.7,1536.9,2026,1540.2,2032.9,1540.2z"/>
					</g>
					<path class="st8" d="M2071.3,1579.1c0,13.8-77,13.8-77,0l0-16.1c3-22,70.7-22.9,77,0L2071.3,1579.1z"/>
				</g>
			</g>
		</g>
		<g>
			<g>
				
					<ellipse transform="matrix(0.7071 -0.7071 0.7071 0.7071 -340.3077 1992.4084)" class="st12" cx="2234.9" cy="1407" rx="109.6" ry="109.6"/>
				<path class="st2" d="M2234.9,1520.6c-62.7,0-113.6-51-113.6-113.6c0-62.6,51-113.6,113.6-113.6c62.7,0,113.6,51,113.6,113.6
					C2348.5,1469.6,2297.5,1520.6,2234.9,1520.6z M2234.9,1301.4c-58.2,0-105.6,47.4-105.6,105.6c0,58.2,47.4,105.6,105.6,105.6
					c58.2,0,105.6-47.4,105.6-105.6C2340.5,1348.8,2293.1,1301.4,2234.9,1301.4z"/>
			</g>
			<g>
				<path d="M2194.9,1404.2v56.7c0,6.3,77.1,6.3,77.1,0v-56.7H2194.9z M2237.3,1434.3v16.1c0,2.1-1.7,3.9-3.9,3.9
					c-2.2,0-3.9-1.8-3.9-3.9v-16.1c-3.3-1.5-5.6-4.8-5.6-8.7c0-5.3,4.3-9.5,9.5-9.5c5.3,0,9.5,4.2,9.5,9.5
					C2243,1429.4,2240.7,1432.8,2237.3,1434.3z"/>
				<path d="M2263.3,1401.7l-9.7-0.3l6.8-7.9c9.2-9.5,9-24.7-0.4-33.9c-9.5-9.2-24.7-9-33.9,0.4l-2.7,2.7l-5.6-5.4l2.7-2.7
					c12.2-12.6,32.4-12.8,45-0.6c12.6,12.2,12.8,32.4,0.6,45L2263.3,1401.7z"/>
			</g>
		</g>
	</g>
	<g id="flying_elements">
		<path class="st15" d="M953.3,387.7c10.8-9.2,17.6-22.8,17.6-38.1c0-27.6-22.4-50-50-50c-27.6,0-50,22.4-50,50
			c0,15.5,7.1,29.4,18.2,38.6h0v9.4h0.1v4.1c0,2.9,2.2,5.5,5.1,5.8c3.3,0.3,6.2-2.3,6.2-5.6v-3.3c0-0.6,0.4-1,1-1c0.6,0,1,0.4,1,1
			v3.1c0,2.9,2.2,5.5,5.1,5.8c3.3,0.3,6.2-2.3,6.2-5.6v-3.3c0-0.6,0.4-1,1-1s1,0.4,1,1v3.1c0,2.9,2.2,5.5,5.1,5.8
			c3.3,0.3,6.2-2.3,6.2-5.6v-3.3c0-0.6,0.4-1,1-1c0.6,0,1,0.4,1,1v3.3c0,3.1,2.5,5.6,5.6,5.6s5.6-2.5,5.6-5.6v-3.3c0-0.6,0.4-1,1-1
			c0.6,0,1,0.4,1,1v3.3c0,3.1,2.5,5.6,5.6,5.6c3.1,0,5.6-2.5,5.6-5.6v-11.8c0-0.1,0-0.3,0-0.4L953.3,387.7
			C953.3,387.7,953.3,387.7,953.3,387.7z M940.4,340.2c9.5,0,17.1,7.7,17.1,17.1c0,9.4-7.7,17.1-17.1,17.1
			c-9.5,0-17.1-7.7-17.1-17.1C923.3,347.9,931,340.2,940.4,340.2z M920.2,371.1c2.4,0,5.6,8.5,4.3,9.8c-1.3,1.3-8.3,1.2-9.5,0
			C913.9,379.6,917.9,371.1,920.2,371.1z M882.2,357.3c0-9.5,7.7-17.1,17.1-17.1c9.5,0,17.1,7.7,17.1,17.1c0,9.4-7.7,17.1-17.1,17.1
			C889.8,374.5,882.2,366.8,882.2,357.3z"/>
		<path class="st15" d="M636.5,1096c10.8-9.2,17.6-22.8,17.6-38.1c0-27.6-22.4-50-50-50c-27.6,0-50,22.4-50,50
			c0,15.5,7.1,29.4,18.2,38.6h0v9.4h0.1v4.1c0,2.9,2.2,5.5,5.1,5.8c3.3,0.3,6.2-2.3,6.2-5.6v-3.3c0-0.6,0.4-1,1-1s1,0.4,1,1v3.1
			c0,2.9,2.2,5.5,5.1,5.8c3.3,0.3,6.2-2.3,6.2-5.6v-3.3c0-0.6,0.4-1,1-1c0.6,0,1,0.4,1,1v3.1c0,2.9,2.2,5.5,5.1,5.8
			c3.3,0.3,6.2-2.3,6.2-5.6v-3.3c0-0.6,0.4-1,1-1s1,0.4,1,1v3.3c0,3.1,2.5,5.6,5.6,5.6c3.1,0,5.6-2.5,5.6-5.6v-3.3c0-0.6,0.4-1,1-1
			c0.6,0,1,0.4,1,1v3.3c0,3.1,2.5,5.6,5.6,5.6c3.1,0,5.6-2.5,5.6-5.6v-11.8c0-0.1,0-0.3,0-0.4L636.5,1096
			C636.5,1096,636.5,1096,636.5,1096z M623.7,1048.6c9.5,0,17.1,7.7,17.1,17.1c0,9.4-7.7,17.1-17.1,17.1c-9.5,0-17.1-7.7-17.1-17.1
			C606.6,1056.3,614.3,1048.6,623.7,1048.6z M603.5,1079.4c2.4,0,5.6,8.5,4.3,9.8c-1.3,1.3-8.3,1.2-9.5,0
			C597.2,1088,601.2,1079.4,603.5,1079.4z M565.4,1065.7c0-9.5,7.7-17.1,17.1-17.1c9.5,0,17.1,7.7,17.1,17.1
			c0,9.4-7.7,17.1-17.1,17.1C573.1,1082.8,565.4,1075.2,565.4,1065.7z"/>
		<path class="st15" d="M1887.1,551.5c8.4-7.2,13.8-17.9,13.8-29.8c0-21.6-17.5-39.1-39.1-39.1c-21.6,0-39.1,17.5-39.1,39.1
			c0,12.2,5.5,23,14.2,30.2h0v7.4h0v3.2c0,2.3,1.7,4.3,4,4.5c2.6,0.3,4.8-1.8,4.8-4.4v-2.6c0-0.4,0.3-0.8,0.8-0.8
			c0.4,0,0.8,0.3,0.8,0.8v2.4c0,2.3,1.7,4.3,4,4.5c2.6,0.3,4.8-1.8,4.8-4.4v-2.6c0-0.4,0.3-0.8,0.8-0.8s0.8,0.3,0.8,0.8v2.4
			c0,2.3,1.7,4.3,4,4.5c2.6,0.3,4.8-1.8,4.8-4.4v-2.6c0-0.4,0.3-0.8,0.8-0.8c0.4,0,0.8,0.3,0.8,0.8v2.6c0,2.4,2,4.4,4.4,4.4
			s4.4-2,4.4-4.4v-2.6c0-0.4,0.3-0.8,0.8-0.8s0.8,0.3,0.8,0.8v2.6c0,2.4,2,4.4,4.4,4.4c2.4,0,4.4-2,4.4-4.4v-9.2c0-0.1,0-0.2,0-0.3
			L1887.1,551.5C1887.1,551.5,1887.1,551.5,1887.1,551.5z M1877,514.4c7.4,0,13.4,6,13.4,13.4c0,7.4-6,13.4-13.4,13.4
			c-7.4,0-13.4-6-13.4-13.4C1863.7,520.4,1869.7,514.4,1877,514.4z M1861.2,538.6c1.8,0,4.4,6.7,3.4,7.7c-1,1-6.5,0.9-7.4,0
			C1856.3,545.3,1859.4,538.6,1861.2,538.6z M1831.5,527.8c0-7.4,6-13.4,13.4-13.4c7.4,0,13.4,6,13.4,13.4c0,7.4-6,13.4-13.4,13.4
			C1837.4,541.2,1831.5,535.2,1831.5,527.8z"/>
		<path class="st15" d="M2012.7,1918c8.4-7.2,13.8-17.9,13.8-29.8c0-21.6-17.5-39.1-39.1-39.1c-21.6,0-39.1,17.5-39.1,39.1
			c0,12.2,5.5,23,14.2,30.2h0v7.4h0v3.2c0,2.3,1.7,4.3,4,4.5c2.6,0.3,4.8-1.8,4.8-4.4v-2.6c0-0.4,0.3-0.8,0.8-0.8
			c0.4,0,0.8,0.3,0.8,0.8v2.4c0,2.3,1.7,4.3,4,4.5c2.6,0.3,4.8-1.8,4.8-4.4v-2.6c0-0.4,0.3-0.8,0.8-0.8c0.4,0,0.8,0.3,0.8,0.8v2.4
			c0,2.3,1.7,4.3,4,4.5c2.6,0.3,4.8-1.8,4.8-4.4v-2.6c0-0.4,0.3-0.8,0.8-0.8s0.8,0.3,0.8,0.8v2.6c0,2.4,2,4.4,4.4,4.4s4.4-2,4.4-4.4
			v-2.6c0-0.4,0.3-0.8,0.8-0.8c0.4,0,0.8,0.3,0.8,0.8v2.6c0,2.4,2,4.4,4.4,4.4c2.4,0,4.4-2,4.4-4.4v-9.2c0-0.1,0-0.2,0-0.3
			L2012.7,1918C2012.7,1918,2012.7,1918,2012.7,1918z M2002.7,1880.9c7.4,0,13.4,6,13.4,13.4c0,7.4-6,13.4-13.4,13.4
			s-13.4-6-13.4-13.4C1989.3,1886.9,1995.3,1880.9,2002.7,1880.9z M1986.9,1905c1.8,0,4.4,6.7,3.4,7.7c-1,1-6.5,0.9-7.4,0
			C1981.9,1911.7,1985,1905,1986.9,1905z M1957.1,1894.3c0-7.4,6-13.4,13.4-13.4s13.4,6,13.4,13.4c0,7.4-6,13.4-13.4,13.4
			S1957.1,1901.7,1957.1,1894.3z"/>
		<g>
			<g>
				<path class="st12" d="M1220.9,869.3l-175,303.2c-9.1,15.7,2.3,35.3,20.4,35.3h350c18.1,0,29.5-19.6,20.4-35.3l-175-303.2
					C1252.6,853.6,1229.9,853.6,1220.9,869.3z"/>
			</g>
			<path d="M1416.3,1192.8h-350.1c-3.2,0-5.9-1.6-7.4-4.3c-1.6-2.7-1.6-5.8,0-8.5l175-303.1c3.1-5.5,11.8-5.5,14.9,0l175,303.1
				c1.6,2.7,1.6,5.9,0,8.6C1422.2,1191.2,1419.5,1192.8,1416.3,1192.8z M1068.7,1182.8h345.2l-172.6-298.9L1068.7,1182.8z
				 M1240.1,881.7C1240.1,881.8,1240.1,881.8,1240.1,881.7L1240.1,881.7z M1242.5,881.7L1242.5,881.7L1242.5,881.7z"/>
			<g>
				<path d="M1241.8,1100.3L1241.8,1100.3c-10,0-18.4-7.8-19.1-17.8l-5.9-85.5c-1-14.4,10.5-26.7,24.9-26.7h0
					c14.5,0,25.9,12.3,24.9,26.7l-5.9,85.5C1260.2,1092.5,1251.8,1100.3,1241.8,1100.3z"/>
				<circle cx="1241.8" cy="1134.3" r="18.9"/>
			</g>
		</g>
		<g>
			<g>
				<path class="st15" d="M2000.9,1125.7c-0.1,0-0.2,0-0.3,0l-30.4-3c-0.6-0.1-1.2-0.4-1.5-0.9l-18.6-29.7c-0.6-0.9-0.3-2.2,0.6-2.8
					c0.9-0.6,2.2-0.3,2.8,0.6l18.1,28.9l29.4,2.9c1.1,0.1,1.9,1.1,1.8,2.2C2002.7,1124.9,2001.9,1125.7,2000.9,1125.7z"/>
				<path class="st15" d="M2015.7,1213.1c-0.7,0-1.4-0.3-1.8-1l-19.8-33.5c-0.4-0.6-0.4-1.4,0-2l15.5-26.3c0.6-1,1.8-1.3,2.7-0.7
					c1,0.6,1.3,1.8,0.7,2.7l-14.9,25.3l19.2,32.5c0.6,0.9,0.2,2.2-0.7,2.7C2016.4,1213,2016,1213.1,2015.7,1213.1z"/>
				<path class="st15" d="M1968.1,1189.7c-0.2,0-0.5,0-0.7-0.1c-1-0.3-1.6-1.5-1.3-2.5l8.9-27.6c0.2-0.5,0.5-0.9,0.9-1.1l25.2-14.5
					c1-0.6,2.2-0.2,2.7,0.7c0.5,1,0.2,2.2-0.7,2.7l-24.5,14.1l-8.7,26.9C1969.7,1189.2,1968.9,1189.7,1968.1,1189.7z"/>
				<path class="st15" d="M1968.2,1142.8c-0.4,0-0.8-0.1-1.1-0.3l-20.3-12.4c-0.9-0.6-1.2-1.8-0.7-2.7c0.6-0.9,1.8-1.2,2.7-0.7
					l19.7,12.1l30.1-4.8c1.1-0.2,2.1,0.6,2.3,1.7c0.2,1.1-0.6,2.1-1.7,2.3l-30.9,4.9C1968.4,1142.8,1968.3,1142.8,1968.2,1142.8z"/>
			</g>
			<path class="st15" d="M1994.3,1128.2c-3.1-19.5,10.2-37.8,29.7-40.9s37.8,10.2,40.9,29.7c3.1,19.5-8.7,47.2-28.2,50.3
				S1997.4,1147.7,1994.3,1128.2z"/>
			<path d="M2048.7,1111.6c2.4-4.8,0.6-10.7-4.2-13.3c-4.8-2.5-10.7-0.8-13.4,3.9L2048.7,1111.6z"/>
			<path d="M2008.7,1118.8c-3.9-3.7-4.3-9.8-0.7-13.9c3.6-4.1,9.7-4.5,13.9-1.1L2008.7,1118.8z"/>
			<path class="st15" d="M2043.3,1092.4c0,0,0-16-13.1-19.8c4.5,7.3,0,17.4,0,17.4L2043.3,1092.4z"/>
			<path class="st15" d="M2008.2,1098c0,0-4.9-15.3,6.3-22.8c-2,8.3,5.4,16.6,5.4,16.6L2008.2,1098z"/>
			<g>
				<path class="st15" d="M2056.9,1116.9c-0.8,0-1.6-0.4-1.9-1.2c-0.4-1,0-2.2,1-2.6l27.1-11.9l8.3-33.1c0.3-1.1,1.4-1.7,2.4-1.4
					c1.1,0.3,1.7,1.4,1.4,2.4l-8.6,34c-0.2,0.6-0.6,1.1-1.1,1.3l-28,12.2C2057.3,1116.8,2057.1,1116.8,2056.9,1116.9z"/>
				<path class="st15" d="M2069.7,1204.6c-0.2,0-0.3,0-0.5,0c-1.1-0.2-1.8-1.3-1.5-2.4l8.3-36.8l-22-19.5c-0.8-0.7-0.9-2-0.2-2.8
					c0.7-0.8,2-0.9,2.8-0.2l22.9,20.3c0.5,0.5,0.8,1.2,0.6,1.9l-8.5,38C2071.4,1204,2070.6,1204.6,2069.7,1204.6z"/>
				<path class="st15" d="M2107.7,1167.7c-0.6,0-1.3-0.3-1.7-0.8l-16.5-22.9l-27.7-5.8c-1.1-0.2-1.8-1.3-1.5-2.4
					c0.2-1.1,1.3-1.8,2.4-1.5l28.4,6c0.5,0.1,0.9,0.4,1.2,0.8l17,23.5c0.6,0.9,0.4,2.1-0.4,2.8
					C2108.5,1167.5,2108.1,1167.6,2107.7,1167.7z"/>
				<path class="st15" d="M2062.3,1127.9c-1,0-1.9-0.7-2-1.7c-0.2-1.1,0.6-2.1,1.7-2.3l30.1-4.8l15-17.5c0.7-0.8,2-0.9,2.8-0.2
					c0.8,0.7,0.9,2,0.2,2.8l-15.5,18.1c-0.3,0.4-0.7,0.6-1.2,0.7l-30.9,4.9C2062.5,1127.9,2062.4,1127.9,2062.3,1127.9z"/>
			</g>
		</g>
		<g>
			<g>
				<path class="st15" d="M1098.4,760.3c-0.6,0-1.2-0.3-1.6-0.8l-16.9-23.7c-0.3-0.5-0.4-1.1-0.3-1.7l9.6-32c0.3-1,1.4-1.6,2.4-1.3
					c1,0.3,1.6,1.4,1.3,2.4l-9.4,31.1l16.4,23c0.6,0.9,0.4,2-0.4,2.7C1099.2,760.2,1098.8,760.3,1098.4,760.3z"/>
				<path class="st15" d="M1044.9,825.8c-0.2,0-0.4,0-0.6-0.1c-1-0.3-1.5-1.4-1.2-2.4l11.6-35.3c0.2-0.7,0.8-1.1,1.5-1.3l28.6-5.4
					c1-0.2,2,0.5,2.2,1.5c0.2,1-0.5,2-1.5,2.2l-27.5,5.2l-11.3,34.2C1046.4,825.3,1045.7,825.8,1044.9,825.8z"/>
				<path class="st15" d="M1031.9,776.9c-0.7,0-1.4-0.4-1.8-1.2c-0.4-1,0-2.1,1-2.5l25.4-10.9c0.4-0.2,0.9-0.2,1.4-0.1l26.2,9
					c1,0.3,1.5,1.4,1.2,2.4c-0.3,1-1.4,1.5-2.4,1.2l-25.5-8.8l-24.7,10.6C1032.4,776.9,1032.1,776.9,1031.9,776.9z"/>
				<path class="st15" d="M1088.5,766.6c-0.4,0-0.9-0.1-1.2-0.4l-22.9-19.1c-0.3-0.3-0.6-0.7-0.7-1.1l-3.8-22.4
					c-0.2-1,0.5-2,1.6-2.2c1-0.2,2,0.5,2.2,1.6l3.7,21.7l22.3,18.7c0.8,0.7,0.9,1.9,0.2,2.7C1089.6,766.4,1089.1,766.6,1088.5,766.6
					z"/>
			</g>
			<path class="st15" d="M1091.1,756.6c12.1-14.4,33.6-16.4,48-4.3c14.4,12.1,16.4,33.6,4.3,48c-12.1,14.4-39.4,23.4-53.9,11.3
				C1075.1,799.5,1079,771,1091.1,756.6z"/>
			<path d="M1137.2,785.2c5-1.3,8-6.3,6.9-11.4c-1.2-5-6.1-8.2-11.2-7.2L1137.2,785.2z"/>
			<path d="M1106.9,761c0.2-5.1,4.4-9.2,9.5-9.2c5.2,0,9.4,4.2,9.5,9.3L1106.9,761z"/>
			<path class="st15" d="M1147.6,769.3c0,0,11.5-10.1,6-21.8c-2.4,7.8-12.5,10.9-12.5,10.9L1147.6,769.3z"/>
			<path class="st15" d="M1121.5,747.5c0,0,7.9-13.1,20.4-9.8c-7.2,3.8-8.5,14.3-8.5,14.3L1121.5,747.5z"/>
			<g>
				<path class="st15" d="M1166.3,807.4c-0.3,0-0.6-0.1-0.8-0.2l-26.4-12.4c-1-0.4-1.4-1.6-0.9-2.5c0.4-1,1.6-1.4,2.5-0.9l25.5,12
					l29-14.8c0.9-0.5,2.1-0.1,2.6,0.8c0.5,0.9,0.1,2.1-0.8,2.6l-29.8,15.2C1166.9,807.3,1166.6,807.4,1166.3,807.4z"/>
				<path class="st15" d="M1084.9,859.3c-0.7,0-1.3-0.4-1.7-1c-0.5-0.9-0.2-2.1,0.8-2.6l31.7-17.2l0.2-28c0-1.1,0.9-1.9,1.9-1.9
					c1.1,0,1.9,0.9,1.9,1.9l-0.2,29.1c0,0.7-0.4,1.3-1,1.7l-32.7,17.7C1085.5,859.2,1085.2,859.3,1084.9,859.3z"/>
				<path class="st15" d="M1135.3,863.4c-0.1,0-0.3,0-0.4,0c-1-0.2-1.7-1.3-1.4-2.3l6.1-26.2l-13.2-23.5c-0.5-0.9-0.2-2.1,0.7-2.6
					c0.9-0.5,2.1-0.2,2.6,0.7l13.5,24.2c0.2,0.4,0.3,0.9,0.2,1.4l-6.2,26.9C1137,862.8,1136.2,863.4,1135.3,863.4z"/>
				<path class="st15" d="M1158.3,825c-0.4,0-0.9-0.2-1.2-0.4l-22.9-19.1c-0.8-0.7-0.9-1.9-0.2-2.7c0.7-0.8,1.9-0.9,2.7-0.2
					l22.3,18.7l22-0.2c1.1,0,1.9,0.8,1.9,1.9c0,1.1-0.8,1.9-1.9,1.9L1158.3,825C1158.3,825,1158.3,825,1158.3,825z"/>
			</g>
		</g>
		<g>
			<g>
				<path class="st15" d="M705.6,1804.8c-0.8,0-1.5-0.3-2-1c-0.8-1.1-0.6-2.6,0.5-3.5l30.3-22.9c0.6-0.5,1.4-0.6,2.1-0.4l42.1,11.3
					c1.3,0.4,2.1,1.7,1.8,3c-0.4,1.3-1.7,2.1-3,1.8l-40.9-11l-29.3,22.2C706.7,1804.7,706.1,1804.8,705.6,1804.8z"/>
				<path class="st15" d="M672.7,1788.5c-1.1,0-2.2-0.8-2.4-2l-7.8-35.7l-45-13.3c-1.3-0.4-2.1-1.8-1.7-3.1c0.4-1.3,1.8-2.1,3.1-1.7
					l46.4,13.8c0.9,0.3,1.5,1,1.7,1.8l8.1,37.1c0.3,1.3-0.6,2.7-1.9,3C673.1,1788.5,672.9,1788.5,672.7,1788.5z"/>
				<path class="st15" d="M685.8,1786c-0.2,0-0.5,0-0.7-0.1c-1.3-0.4-2-1.8-1.6-3.1l10.5-33.6l-14.8-31.8c-0.6-1.2,0-2.7,1.2-3.3
					c1.2-0.6,2.7,0,3.3,1.2l15.2,32.7c0.3,0.6,0.3,1.2,0.1,1.8l-10.7,34.5C687.9,1785.3,686.9,1786,685.8,1786z"/>
				<path class="st15" d="M697,1792.2c-0.5,0-1.1-0.2-1.5-0.5c-1.1-0.8-1.3-2.4-0.4-3.5l24-30.5c0.4-0.5,0.9-0.8,1.5-0.9l29-5.8
					c1.3-0.3,2.7,0.6,2.9,1.9c0.3,1.3-0.6,2.7-1.9,2.9l-28.1,5.7l-23.4,29.8C698.4,1791.9,697.7,1792.2,697,1792.2z"/>
			</g>
			<path class="st15" d="M707.7,1792.7c19.3,15.2,22.6,43.1,7.5,62.4c-15.2,19.3-43.1,22.6-62.4,7.5s-31.9-50.4-16.8-69.7
				C651.2,1773.6,688.4,1777.6,707.7,1792.7z"/>
			<path d="M672.2,1853.8c1.9,6.4,8.5,10.2,15.1,8.5c6.5-1.7,10.4-8.3,8.9-14.8L672.2,1853.8z"/>
			<path d="M702.5,1813.5c6.7,0,12.2,5.3,12.4,12.1c0.2,6.7-5.1,12.3-11.7,12.7L702.5,1813.5z"/>
			<path class="st15" d="M693.3,1866.7c0,0,13.6,14.6,28.6,7c-10.2-2.9-14.7-15.9-14.7-15.9L693.3,1866.7z"/>
			<path class="st15" d="M720.7,1832c0,0,17.3,9.8,13.5,26.2c-5.2-9.3-18.9-10.5-18.9-10.5L720.7,1832z"/>
			<g>
				<path class="st15" d="M667.8,1933.2c-0.9,0-1.7-0.5-2.2-1.3l-20.9-38.2c-0.4-0.7-0.4-1.5-0.1-2.2l15.2-34.8
					c0.5-1.3,2-1.8,3.3-1.3c1.3,0.5,1.8,2,1.3,3.3l-14.7,33.7l20.3,37.2c0.7,1.2,0.2,2.7-1,3.4
					C668.6,1933.1,668.2,1933.2,667.8,1933.2z"/>
				<path class="st15" d="M600.5,1832.9c-0.9,0-1.7-0.5-2.1-1.2l-24.3-41.8c-0.7-1.2-0.3-2.7,0.9-3.4c1.2-0.7,2.7-0.3,3.4,0.9
					l23.6,40.6l36.5-0.8c0,0,0,0,0.1,0c1.3,0,2.4,1.1,2.5,2.4c0,1.4-1.1,2.5-2.4,2.5L600.5,1832.9
					C600.6,1832.9,600.6,1832.9,600.5,1832.9z"/>
				<path class="st15" d="M608.1,1864c-0.2,0-0.3,0-0.5,0l-35.3-7.1c-1.3-0.3-2.2-1.6-1.9-2.9c0.3-1.3,1.6-2.2,2.9-1.9l34.4,6.9
					l30.2-18.1c1.2-0.7,2.7-0.3,3.4,0.9c0.7,1.2,0.3,2.7-0.9,3.4l-31,18.6C609,1863.8,608.6,1864,608.1,1864z"/>
				<path class="st15" d="M624.9,1914.9c-1.3,0-2.4-1-2.5-2.4l-1.2-29.6c0-0.6,0.2-1.2,0.5-1.6l24-30.5c0.8-1.1,2.4-1.3,3.5-0.4
					c1.1,0.8,1.3,2.4,0.4,3.5l-23.4,29.8l1.1,28.7C627.4,1913.7,626.4,1914.8,624.9,1914.9C625,1914.9,624.9,1914.9,624.9,1914.9z"
					/>
			</g>
		</g>
		<circle class="st12" cx="431.4" cy="1870" r="18.8"/>
		<circle class="st15" cx="281.1" cy="1106.7" r="35.9"/>
		<g>
			<path class="st15" d="M1660.6,1642.8L1660.6,1642.8c-3.4,0-6.2-2.8-6.2-6.2v-66.7c0-3.4,2.8-6.2,6.2-6.2l0,0
				c3.4,0,6.2,2.8,6.2,6.2v66.7C1666.8,1640,1664,1642.8,1660.6,1642.8z"/>
			<path class="st15" d="M1621,1603.2L1621,1603.2c0-3.4,2.8-6.2,6.2-6.2h66.7c3.4,0,6.2,2.8,6.2,6.2l0,0c0,3.4-2.8,6.2-6.2,6.2
				h-66.7C1623.8,1609.4,1621,1606.7,1621,1603.2z"/>
		</g>
		<g>
			<path class="st15" d="M1804.2,1086.2L1804.2,1086.2c-3.4,0-6.2-2.8-6.2-6.2v-66.7c0-3.4,2.8-6.2,6.2-6.2l0,0
				c3.4,0,6.2,2.8,6.2,6.2v66.7C1810.5,1083.4,1807.7,1086.2,1804.2,1086.2z"/>
			<path class="st15" d="M1764.7,1046.7L1764.7,1046.7c0-3.4,2.8-6.2,6.2-6.2h66.7c3.4,0,6.2,2.8,6.2,6.2l0,0c0,3.4-2.8,6.2-6.2,6.2
				h-66.7C1767.5,1052.9,1764.7,1050.1,1764.7,1046.7z"/>
		</g>
		<path class="st2" d="M1181.7,1489.7c-12.7,0-23.1-10.4-23.1-23.1s10.4-23.1,23.1-23.1s23.1,10.4,23.1,23.1
			S1194.4,1489.7,1181.7,1489.7z M1181.7,1449.9c-9.2,0-16.7,7.5-16.7,16.7s7.5,16.7,16.7,16.7s16.7-7.5,16.7-16.7
			S1190.9,1449.9,1181.7,1449.9z"/>
		<g>
			<g>
				
					<rect x="694" y="1528" transform="matrix(1 -3.633070e-03 3.633070e-03 1 -5.7548 2.8063)" class="st16" width="151" height="114.8"/>
				
					<rect x="701.2" y="1535.1" transform="matrix(1 -3.632688e-03 3.632688e-03 1 -5.7542 2.806)" class="st17" width="136.7" height="100.7"/>
				<polygon class="st16" points="710.1,1629 802.2,1628.7 751.8,1580.4 				"/>
				<polygon class="st16" points="752,1628.9 829.3,1628.6 787.3,1588.7 				"/>
				
					<ellipse transform="matrix(0.3616 -0.9323 0.9323 0.3616 -965.1635 1729.7245)" class="st16" cx="780.5" cy="1569.7" rx="10.7" ry="10.7"/>
			</g>
		</g>
		<g>
			<g>
				
					<rect x="1373.5" y="757.3" transform="matrix(1 -3.632408e-03 3.632408e-03 1 -2.9497 5.2686)" class="st16" width="151" height="114.8"/>
				
					<rect x="1380.6" y="764.4" transform="matrix(1 -3.631957e-03 3.631957e-03 1 -2.9494 5.268)" class="st17" width="136.7" height="100.7"/>
				<polygon class="st16" points="1389.5,858.3 1481.6,858 1431.2,809.7 				"/>
				<polygon class="st16" points="1431.4,858.2 1508.7,857.9 1466.7,818 				"/>
				
					<ellipse transform="matrix(0.7071 -0.7071 0.7071 0.7071 -137.3274 1266.3446)" class="st16" cx="1459.9" cy="798.9" rx="10.7" ry="10.7"/>
			</g>
		</g>
	</g>
</g>
<g id="shadow">
	<path class="st4" d="M1998.1,2403.9h-171.4c-4.1,0-7.5-3.4-7.5-7.5s3.4-7.5,7.5-7.5h171.4c4.1,0,7.5,3.4,7.5,7.5
		S2002.3,2403.9,1998.1,2403.9z"/>
	<path class="st4" d="M1763.3,2403.9H534.1c-4.1,0-7.5-3.4-7.5-7.5s3.4-7.5,7.5-7.5h1229.2c4.1,0,7.5,3.4,7.5,7.5
		S1767.4,2403.9,1763.3,2403.9z"/>
</g>
<g id="hacker">
	<g>
		<g>
			<path class="st9" d="M1569,2371.2l-646,9.9c-77.1-70-141.8-219.3-119.7-313.8c25.2-107.8,61.3-200.5,99.4-256.7
				c16.6-24.6,33.6-42.3,50.1-51.2c79.5-43.2,483.9-50.6,567.1,0c11,6.7,22.2,17.4,33.4,31.4c41.3,51.8,82.1,149.2,111.3,256.8
				C1694.3,2157.2,1648.6,2299.2,1569,2371.2z"/>
			<path class="st18" d="M1553.3,1790.8c-132.5,10.5-224,100.8-301.4,108.5c-64.3,16.6-261.8-147-349.2-88.7
				c16.6-24.6,33.6-42.3,50.1-51.2c79.5-43.2,483.9-50.6,567.1,0C1530.9,1766.2,1542.1,1776.9,1553.3,1790.8z"/>
			<path d="M1505.9,1681.2c-2.6,86.7-108.6,141.6-179,184.5c-82,49.9-83.2,42.3-216.1-45c-62-40.8-135.6-78.6-148.8-134.3
				c-28.8-120.6,131.6-370.6,279.2-370.6S1510.8,1527.3,1505.9,1681.2z"/>
			<g>
				<path class="st19" d="M1419.9,1612.6c-1.1,14.9-3.6,29.4-7,43.2c-16.8,65-58.3,115.6-102.4,142.5
					c-23.4,14.5-47.5,22.2-69.4,22.2c-2.5,0-4.9-0.2-7.4-0.4c-54.5-5.5-137.6-69-163.6-164c-4-14-6.6-28.5-7.7-43.6
					c-0.9-11.9-1.1-23.4-0.8-34.7c4.1-119.9,79.2-203.8,179.5-203.8c100.1,0,175.3,83.7,179.5,203.4
					C1421.1,1588.9,1420.9,1600.6,1419.9,1612.6z"/>
				<path class="st19" d="M1079.2,1654.3c-2.8,1.3-6,1.9-9,1.9c-13.6,0.2-28.1-10.4-35.3-27.3c-8.9-20.7-3.4-42.8,12.3-49.6
					c4.5-1.9,9.6-2.3,14.5-1.3c11.7,2.3,23.6,12.1,29.8,26.8C1100.4,1625.5,1094.9,1647.5,1079.2,1654.3z"/>
				<path class="st19" d="M1444.4,1628.9c-6.6,15.5-19.2,25.5-31.5,27c-4.3,0.8-8.7,0.2-12.8-1.5c-8.5-3.6-14-12.1-15.6-22.2
					c-1.7-8.1-0.8-17.5,3.2-26.8c0-0.2,0.2-0.4,0.2-0.6c6.8-15.8,20-26.2,32.8-27.2c4-0.4,7.9,0.2,11.7,1.7
					C1447.8,1586.1,1453.3,1608.1,1444.4,1628.9z"/>
				<path class="st20" d="M1444.4,1628.9c-6.6,15.5-19.2,25.5-31.5,27c-16.8,65-58.3,115.6-102.4,142.5
					c30.5-30.9,77.5-123.3,67.8-139.7c-9.7-16.4-71,19.6-91.4-1.1c-32.2-32.7-35.5-31.6-67.7-1.3c-37.1,34.8-76.7-9.6-112.1-3.3
					c-35.4,6.4,53,152.4,126.7,167.3c-54.5-5.5-137.6-69-163.6-164c-13.6,0.2-28.1-10.4-35.3-27.3c-8.9-20.7-3.4-42.8,12.3-49.6
					c4.5-1.9,9.6-2.3,14.5-1.3c4.1-119.9,79.2-203.8,179.5-203.8c100.1,0,175.3,83.7,179.5,203.4c4-0.4,7.9,0.2,11.7,1.7
					C1447.8,1586.1,1453.3,1608.1,1444.4,1628.9z"/>
				<path d="M1423.9,1575.2v12.6c-0.3,13.9-7.2,25.8-18.9,35.6c-22.5,18.9-62.7,30.6-107.9,35.3c-17.6-1.1-31.9-50.7-46.5-50.7
					c-14.7,0-18.7,47.2-49.7,50.7c-53.1-5.3-101.4-19.8-125.6-42.6c-10.8-10.2-16.8-22-16.6-35.5v-17
					C1059.8,1522.5,1425.2,1533.8,1423.9,1575.2z"/>
				<path class="st21" d="M1225.3,1673.8c0,0,1.7,23.5,26.6,23.5s26.6-22.6,26.6-22.6s-8.9,15.6-27.5,15.6
					C1232.4,1690.3,1225.3,1673.8,1225.3,1673.8z"/>
				<g>
					<path class="st20" d="M1207.5,1736c11.4,9.3,72.1,6,74.6,0C1284.3,1730.8,1234,1739.7,1207.5,1736z"/>
					<path class="st21" d="M1215.1,1745c0,0,28.3,5.8,55.8,0c5.2,0-5.2,5.3-10.8,6.2C1229.9,1755.8,1215.1,1745,1215.1,1745z"/>
				</g>
				<path class="st2" d="M1405,1623.4c-22.5,18.9-62.7,30.6-107.9,35.3c-17.6-1.1-31.9-50.7-46.5-50.7c-14.7,0-18.7,47.2-49.7,50.7
					c-53.1-5.3-101.4-19.8-125.6-42.6c29.2-25.1,90.3-42.3,161.1-42.3C1313.9,1573.8,1379.9,1594.4,1405,1623.4z"/>
			</g>
			<path class="st9" d="M1524.5,1614.2C1501.3,1469,1394,1300,1251.9,1300c-115.9,0-254.3,167.4-292.4,297.2
				c-5.3,17.9-8.6,34.9-9.7,50.8c-1.1,15.7-0.1,30.1,3.4,42.9c15.8,57.8,139.8,143,220.9,186.2c14.6,7.8,55,22.1,73.8,22.5
				c13.2,5.8,49-12.4,61-18.9c83.8-45.1,217.9-125.9,220.2-200.8v-1.6C1529.7,1657.9,1528.2,1636.3,1524.5,1614.2z M1250.5,1881.2
				c-29.7-49.4-216.4-155.5-206.3-195.7c25.6-102.3,109.7-149.9,204.6-144.9c107,5.7,189.9,70.5,196.2,124.7
				C1442.3,1713.5,1282.6,1826.5,1250.5,1881.2z"/>
			<path d="M1423.8,1671.9c-27.2,48.7-80.8,118.5-130.7,149.3c-16.6,10.2-32.8,16.2-47.5,15.6c-7.5-0.3-14.9-1.7-22.4-3.9
				c-79.9-24.5-153.8-152.8-153.8-152.8c43,19.8,74,20.3,98.6,14.2c33.7-8.3,55.5-28.7,80.1-28.5c19.1,0.2,43.1,22.8,83.2,27.1
				C1355.5,1695.5,1385.5,1691.5,1423.8,1671.9z"/>
			<path class="st22" d="M1331.3,1692.9c-2.2,39-16.6,94.3-38.3,128.4c-16.6,10.2-32.8,16.2-47.5,15.6c-7.5-0.3-14.9-1.7-22.4-3.9
				c-32.7-31.5-53.3-96-55.2-138.6c33.7-8.3,55.5-28.7,80.1-28.5C1267.2,1666,1291.2,1688.6,1331.3,1692.9z"/>
		</g>
		<path class="st2" d="M1185.1,1881.4c-83.5-37.9-220.7-135.3-236.5-193.1c-3.4-12.8-4.5-27.2-3.4-42.9
			c7.6,39.3,40.7,81.8,80.9,120.3C1074.2,1811.7,1173,1839.3,1185.1,1881.4z"/>
		<path class="st2" d="M1524.7,1675.7v1.6c-2.3,75-146.5,164.1-234.3,208C1315.7,1821.5,1501.5,1776.7,1524.7,1675.7z"/>
		<g>
			<g>
				<path class="st23" d="M1201.6,2097.9c-0.2,0-0.5,0-0.7-0.1c-1.3-0.4-2.1-1.8-1.7-3.1c28.5-98.6,20.3-188.1,8.2-206.5
					c-0.8-1.2-0.4-2.7,0.7-3.5c1.2-0.8,2.7-0.4,3.5,0.7c12.9,19.6,21.8,109.2-7.5,210.7C1203.7,2097.2,1202.7,2097.9,1201.6,2097.9z
					"/>
				<path class="st23" d="M1200,1896.2c-0.2,0-0.4,0-0.7-0.1c-1.3-0.4-2.1-1.8-1.7-3.1c0.1-0.3,2.3-7.9,8.5-10.3
					c3.7-1.4,7.8-0.8,12.3,2c1.2,0.7,1.5,2.3,0.8,3.4s-2.3,1.5-3.4,0.8c-3.1-1.9-5.7-2.4-7.8-1.6c-3.9,1.5-5.5,7-5.5,7
					C1202.1,1895.5,1201.1,1896.2,1200,1896.2z"/>
			</g>
			<g>
				<path class="st23" d="M1276.7,2097.9c-1.1,0-2.1-0.7-2.4-1.8c-29.3-101.5-20.5-191.1-7.5-210.7c0.8-1.2,2.3-1.5,3.5-0.7
					c1.2,0.8,1.5,2.3,0.7,3.5c-12.2,18.4-20.3,108,8.2,206.5c0.4,1.3-0.4,2.7-1.7,3.1C1277.2,2097.9,1277,2097.9,1276.7,2097.9z"/>
				<path class="st23" d="M1278.3,1896.2c-1.1,0-2.1-0.7-2.4-1.8l0,0c0-0.1-1.6-5.5-5.5-7c-2.1-0.8-4.8-0.3-7.8,1.6
					c-1.2,0.7-2.7,0.4-3.4-0.8c-0.7-1.2-0.4-2.7,0.8-3.4c4.5-2.7,8.6-3.4,12.3-2c6.2,2.4,8.4,10,8.5,10.3c0.4,1.3-0.4,2.7-1.7,3.1
					C1278.7,1896.2,1278.5,1896.2,1278.3,1896.2z"/>
			</g>
		</g>
		<path class="st18" d="M1526.2,1616.3c-34.2-107.4-104-226-259.5-238.3c-166.9-13.1-277.1,126.1-305.5,221.3
			c32.8-129.7,166.7-302.8,290.7-303C1394,1296.1,1503,1471.1,1526.2,1616.3z"/>
		<g>
			<path class="st4" d="M1629.5,2398.3H851.1l-106.7-371.1c-5.2-18.1,8.4-36.1,27.2-36.1h937.6c18.8,0,32.4,18,27.2,36.1
				L1629.5,2398.3z"/>
		</g>
		<path d="M1277.5,2268.1c14.9-9.4,26-24.1,28.7-41.8c5.5-36.1-25.3-69.8-69.8-69.8c-44.5,0-75.3,33.7-69.8,69.8
			c2.8,18.1,14.2,33,29.5,42.3h0.1l0.9,9.2h0.1l0.9,8.9c0.3,2.6,3.1,4.9,6.5,5.2c4,0.3,7.2-2.1,7.1-5l-0.5-8.1
			c0-0.5,0.5-0.9,1.2-0.9s1.3,0.4,1.3,0.9l0.4,7.9c0.1,2.6,2.9,4.9,6.3,5.2c4,0.3,7.3-2.1,7.3-5l-0.2-8.1c0-0.5,0.5-0.9,1.2-0.9
			c0.7,0,1.2,0.4,1.2,0.9l0.1,7.9c0,2.6,2.7,4.9,6.1,5.2c4,0.3,7.4-2.1,7.5-5l0.1-8.1c0-0.5,0.6-0.9,1.3-0.9s1.2,0.4,1.2,0.9
			l-0.2,8.1c-0.1,2.8,2.9,5,6.6,5s6.8-2.3,7-5l0.5-8.1c0-0.5,0.6-0.9,1.3-0.9s1.2,0.4,1.2,0.9l-0.5,8.1c-0.2,2.8,2.7,5,6.4,5
			c3.7,0,6.9-2.3,7.2-5l1.6-16.3c0-0.1,0-0.3,0-0.4L1277.5,2268.1C1277.5,2268.1,1277.5,2268.1,1277.5,2268.1z M1264.4,2214.7
			c13.5,0,23.4,9.6,22.2,20.8c-1.2,10.7-12.2,19-24.5,19c-12.4,0-22.3-8.3-22.3-19C1239.9,2224.2,1250.9,2214.7,1264.4,2214.7z
			 M1235.6,2250.9c3.1,0,7.3,9,5.6,10.3c-1.7,1.3-10.6,1.2-12.2,0C1227.4,2259.9,1232.5,2250.9,1235.6,2250.9z M1183.5,2235.5
			c-1.3-11.3,8.5-20.8,22-20.8c13.5,0,24.6,9.6,24.8,20.8c0.1,10.7-9.8,19-22.1,19S1184.8,2246.2,1183.5,2235.5z"/>
	</g>
</g>
</svg>
